<svg xmlns="http://www.w3.org/2000/svg" width="255.775" height="255.775" viewBox="0 0 255.775 255.775">
  <g id="Group_8" data-name="Group 8" transform="translate(-234.142 -106.263) rotate(-45)">
    <path id="Path_8" data-name="Path 8" d="M5.475,506.529C-1.447,499.607-1.8,487.661,4.4,470.008c4.431-12.625,12.174-28.281,23.01-46.526C46.066,392.064,70.369,359.189,81.36,348.2A58.295,58.295,0,0,1,163.8,430.64c-10.995,10.994-43.868,35.3-75.283,53.955C70.271,495.431,54.619,503.172,42,507.606,24.341,513.8,12.4,513.45,5.475,506.529Z" transform="translate(0)" fill="#d64933"/>
    <path id="Path_9" data-name="Path 9" d="M163.8,348.2a58.536,58.536,0,0,0-12.2-9.348,58.393,58.393,0,0,1-9.307,70.28c-10.994,10.992-43.868,35.294-75.282,53.953-18.248,10.837-33.9,18.579-46.525,23.013-7.966,2.8-14.758,4.246-20.462,4.374-.155,6.937,1.652,12.259,5.45,16.059,6.92,6.92,18.866,7.271,36.52,1.076,12.623-4.433,28.277-12.176,46.524-23.011,31.415-18.658,64.289-42.961,75.283-53.955A58.363,58.363,0,0,0,163.8,348.2Z" transform="translate(0)" fill="#b73c29"/>
    <path id="Path_16" data-name="Path 16" d="M50.741,461.26c-5.927-5.927-2.136-15.355,2.353-23.8a250.416,250.416,0,0,1,16.962-26.4c12.9-18.039,28.291-36.836,32.81-41.355a27.881,27.881,0,1,1,39.429,39.429c-4.52,4.521-23.319,19.912-41.353,32.81A250.008,250.008,0,0,1,74.54,458.9C66.1,463.4,56.669,467.186,50.741,461.26Z" transform="translate(0)" fill="#feca57"/>
  </g>
</svg>
