<svg xmlns="http://www.w3.org/2000/svg" width="546.365" height="546.365" viewBox="0 0 546.365 546.365">
  <g id="rocket" transform="translate(-88.856 362.038) rotate(-45)">
    <path id="Path_3" data-name="Path 3" d="M288.84,432.74a7.253,7.253,0,0,0,1.057-.279c.06-.02.119-.04.176-.062a7.575,7.575,0,0,0,1.049-.473l.035-.016c.054-.029.1-.065.155-.1.146-.085.291-.174.433-.27.1-.067.19-.139.283-.208s.2-.154.3-.237c.121-.1.235-.208.351-.317.052-.048.106-.091.157-.141l.109-.113.022-.021c109.958-110.02,95.95-170.777,95.3-173.31a7.6,7.6,0,0,0-14.729,3.782c.03.121-115.277,96.07-115.277,96.07a7.6,7.6,0,1,0-13.292,7.384l35.752,64.362.011.02.079.143c.016.029.039.056.057.085a7.249,7.249,0,0,0,.446.687c.051.069.1.141.151.206a7.632,7.632,0,0,0,.556.64c.023.021.041.05.063.071s.038.027.055.046a7.274,7.274,0,0,0,.776.657c.066.05.131.1.2.148a7.841,7.841,0,0,0,.91.548c.04.02.08.035.12.056a7.534,7.534,0,0,0,.974.392l.089.031a7.349,7.349,0,0,0,1.05.239c.068.012.138.022.206.029a7.458,7.458,0,0,0,1.054.071c.054,0,.106-.006.16-.008a7.571,7.571,0,0,0,.983-.093C288.728,432.756,288.783,432.751,288.84,432.74Z" fill="#d64933"/>
    <path id="Path_4" data-name="Path 4" d="M157.908,264.072a7.6,7.6,0,0,0-2.954-10.338s96.031-115.289,96.167-115.258l-.1-.025,3.782-14.728c-2.535-.652-63.286-14.653-173.3,95.3a.206.206,0,0,1-.021.021c-.039.038-.075.073-.112.111s-.093.1-.143.158c-.108.113-.216.228-.317.351-.083.1-.159.2-.236.3s-.142.187-.208.283c-.1.141-.184.285-.27.432-.03.054-.067.1-.1.156-.007.012-.01.023-.017.035a7.417,7.417,0,0,0-.471,1.043c-.022.062-.044.123-.064.185a7.365,7.365,0,0,0-.277,1.051c-.012.06-.017.119-.026.18a7.332,7.332,0,0,0-.09.97c0,.056-.009.113-.01.168a7.5,7.5,0,0,0,.071,1.049c.009.071.019.141.029.212a7.668,7.668,0,0,0,.24,1.047c.009.031.021.062.03.091a7.537,7.537,0,0,0,.392.972c.02.042.037.081.058.121a7.565,7.565,0,0,0,.547.91c.049.069.1.135.148.2a7.971,7.971,0,0,0,.659.775c.016.018.027.035.045.054s.049.04.071.062a7.936,7.936,0,0,0,.639.557c.067.052.137.1.207.15a7.058,7.058,0,0,0,.686.447c.03.018.056.04.086.056l.142.079a.106.106,0,0,1,.02.012l64.357,35.751A7.6,7.6,0,0,0,157.908,264.072Z" fill="#d64933"/>
    <path id="Path_5" data-name="Path 5" d="M127.889,305.117a7.6,7.6,0,0,1-1.734-8.071c20.033-52.867,96.667-147.661,141.98-192.975C340.544,31.662,417.857-2.339,504.49.125a7.6,7.6,0,0,1,7.384,7.384c2.466,86.632-31.535,163.944-103.946,236.356-45.313,45.313-140.1,121.948-192.971,141.981a7.606,7.606,0,0,1-8.071-1.735Z" fill="#e9e2d8"/>
    <path id="Path_6" data-name="Path 6" d="M511.873,7.508A7.6,7.6,0,0,0,504.489.124c-4.718-.135-9.4-.141-14.066-.058-1.431,80.965-35.538,153.82-104.005,222.289C341.1,267.668,246.312,344.3,193.446,364.334a7.6,7.6,0,0,1-8.071-1.733l-57.492-57.489s0,0,0,0l79,78.993a7.606,7.606,0,0,0,8.071,1.735c52.866-20.033,147.658-96.668,192.971-141.981C480.338,171.453,514.339,94.141,511.873,7.508Z" fill="#ddd6cc"/>
    <path id="Path_7" data-name="Path 7" d="M143.113,262.984c-7.294,12.449-13.15,24.015-16.958,34.062a7.6,7.6,0,0,0,1.734,8.071l79,78.993a7.606,7.606,0,0,0,8.071,1.735c10.047-3.808,21.612-9.663,34.061-16.958Z" fill="#4d4d4d"/>
    <g id="Group_5" data-name="Group 5">
      <path id="Path_10" data-name="Path 10" d="M178.139,333.863a7.6,7.6,0,0,0-10.753,0l-5.375,5.374,10.753,10.752,5.375-5.374A7.6,7.6,0,0,0,178.139,333.863Z" fill="#2b2b2b"/>
      <path id="Path_11" data-name="Path 11" d="M149.462,305.186a7.6,7.6,0,0,0-10.753,0l-5.374,5.374,10.753,10.754,5.374-5.376A7.6,7.6,0,0,0,149.462,305.186Z" fill="#2b2b2b"/>
    </g>
    <g id="Group_6" data-name="Group 6">
      <path id="Path_12" data-name="Path 12" d="M265.339,246.662h0a35.484,35.484,0,1,1,50.178,0,35.247,35.247,0,0,1-50.178,0Z" fill="#2ec0f9"/>
      <path id="Path_13" data-name="Path 13" d="M351.371,160.626h0a35.483,35.483,0,1,1,50.181,0A35.52,35.52,0,0,1,351.371,160.626Z" fill="#2ec0f9"/>
    </g>
    <g id="Group_7" data-name="Group 7">
      <path id="Path_14" data-name="Path 14" d="M411.947,135.537A35.464,35.464,0,0,0,388.4,102.129a35.492,35.492,0,0,1-45.356,45.317,35.48,35.48,0,0,0,68.9-11.909Z" fill="#23a0d1"/>
      <path id="Path_15" data-name="Path 15" d="M325.912,221.57a35.461,35.461,0,0,0-23.546-33.406,35.492,35.492,0,0,1-45.357,45.317,35.481,35.481,0,0,0,68.9-11.911Z" fill="#23a0d1"/>
    </g>
    <path id="Path_17" data-name="Path 17" d="M504.49.125A284.584,284.584,0,0,0,416.214,11.2L500.8,95.787A284.57,284.57,0,0,0,511.874,7.509,7.6,7.6,0,0,0,504.49.125Z" fill="#d64933"/>
    <path id="Path_18" data-name="Path 18" d="M217.907,384.681c.561-.226,1.123-.461,1.693-.7l.734-.309q1-.428,2.009-.873c.127-.058.25-.108.377-.166q1.17-.52,2.36-1.072c.277-.127.557-.258.834-.39q.809-.377,1.629-.768c.319-.154.641-.307.961-.463q.832-.4,1.673-.82c.287-.143.572-.279.861-.424q1.161-.582,2.338-1.184c.391-.2.786-.408,1.18-.612.445-.232.893-.463,1.342-.7s.881-.465,1.324-.7l1.231-.659c.463-.249.926-.5,1.394-.754.179-.1.361-.2.542-.3q1.665-.915,3.359-1.869c.308-.172.614-.347.924-.521.568-.322,1.135-.648,1.706-.976.279-.16.56-.322.839-.485.6-.347,1.2-.693,1.8-1.045l-21.509-21.508c-12.449,7.292-24.013,13.15-34.061,16.956a7.6,7.6,0,0,1-8.071-1.733l-57.487-57.485h0l79,78.993a7.606,7.606,0,0,0,8.071,1.735c.746-.283,1.505-.582,2.268-.887Z" fill="#2b2b2b"/>
    <path id="Path_19" data-name="Path 19" d="M490.424.067a282.1,282.1,0,0,1-11.137,74.209L500.8,95.786c.477-1.635.933-3.275,1.379-4.917.1-.353.188-.709.283-1.061q1.932-7.224,3.467-14.53.188-.888.369-1.776c.3-1.467.591-2.936.866-4.41.106-.569.2-1.143.306-1.711q.668-3.7,1.236-7.421c.145-.951.292-1.9.427-2.853q.258-1.818.493-3.64c.153-1.19.3-2.382.434-3.574.146-1.247.288-2.493.417-3.742q.283-2.751.513-5.513c.077-.925.144-1.853.212-2.78q.166-2.3.3-4.6c.046-.8.1-1.6.135-2.4q.166-3.369.259-6.756c.015-.576.02-1.157.031-1.735q.057-2.8.062-5.612c0-.689,0-1.38,0-2.069-.012-2.388-.043-4.782-.111-7.184A7.6,7.6,0,0,0,504.49.124C499.771-.01,495.086-.016,490.424.067Z" fill="#b73c29"/>
  </g>
</svg>
